<?xml version="1.0" encoding="utf-8"?>
<!-- Generator: Adobe Illustrator 17.1.0, SVG Export Plug-In . SVG Version: 6.00 Build 0)  -->
<!DOCTYPE svg PUBLIC "-//W3C//DTD SVG 1.1//EN" "http://www.w3.org/Graphics/SVG/1.1/DTD/svg11.dtd">
<svg version="1.1" id="Layer_1" xmlns="http://www.w3.org/2000/svg" xmlns:xlink="http://www.w3.org/1999/xlink" x="0px" y="0px"
	 viewBox="0 0 1000 800" enable-background="new 0 0 1000 800" xml:space="preserve">
<rect fill="#FFFFFF" width="1000" height="800"/>
<g>
	<g>
		<path fill="#555DA0" d="M584.1,297c2.5-2.4,5-4.9,7.5-7.6c12.2-13.4,21.2-28.5,25.3-42.4c5-16.7,2.7-30.4-6.5-38.7
			c-5.1-4.6-11.8-7-19.6-7c-17.8,0-40.6,12.9-59.4,33.6c-8,8.8-14.6,18.3-19.3,27.7c-3.7-0.4-7.5-0.5-11.3-0.5h-2.4
			c-5.1,0-10.1,0.3-15.1,1c-3.8-5.9-8.3-11.6-13.3-17.1c-18.8-20.7-41.6-33.6-59.4-33.6c-7.7,0-14.5,2.4-19.6,7
			c-9.2,8.3-11.5,22.1-6.5,38.7c4.2,13.9,13.1,29,25.3,42.4c0.3,0.4,0.7,0.7,1,1.1c-8.3,9.4-15,20-19.9,31.6
			c-6.1,14.4-9.2,29.6-9.2,45.4v100.9c0,20.8,16.9,37.8,37.8,37.8h159.9c20.8,0,37.8-16.9,37.8-37.8V378.5c0-15.7-3.1-31-9.2-45.4
			C602.4,319.6,594.3,307.5,584.1,297z M533,242.2c22.9-25.3,51.3-36.8,63.4-25.8c12.1,11,3.3,40.4-19.6,65.6
			c-1.4,1.6-2.9,3.1-4.4,4.6c-8-6.3-16.9-11.5-26.3-15.5c-9.2-3.9-18.7-6.5-28.5-8C521.6,256.1,526.8,249,533,242.2z M405,227.3
			c12.1-11,40.5,0.6,63.4,25.8c3.2,3.5,6.1,7.1,8.7,10.7c-8.3,1.5-16.3,3.9-24.2,7.2c-11.3,4.8-21.6,11.2-30.8,19.2
			C401.1,265.7,393.4,237.9,405,227.3z M500.6,465.5c-28.7,0-52-23.3-52-52c0-28.7,23.3-52,52-52c28.7,0,52,23.3,52,52
			C552.7,442.2,529.3,465.5,500.6,465.5z M609.1,401.4c-2.2,1.8-7.8-1.6-12.5-7.5c-2.5-3.1-4.2-6.2-5-8.8c0,0-0.1,0-0.1,0
			c-3.7,0-6.7-3-6.7-6.7c0-2.8,1.7-5.1,4.1-6.1c-1.5-21.3-10.4-41.1-25.7-56.3c-0.7-0.7-1.3-1.3-2-1.9c-3.8-3.5-7.8-6.7-12-9.5
			c-12.3-8.1-26.3-12.9-41.1-14.1c-1.5-0.1-2.9-0.2-4.4-0.2c-1,0-1.9-0.1-2.9-0.1h-2.4c-0.8,0-1.7,0-2.5,0c-1.6,0-3.2,0.1-4.8,0.3
			c-17.7,1.4-34.3,8.1-48.1,19.2c-2.5,2-4.8,4.1-7.1,6.4c-1.3,1.3-2.6,2.6-3.8,4c-14.3,16.1-22.1,36.7-22.1,58.4
			c0,1.3-1.1,2.4-2.4,2.4c-1.3,0-2.4-1.1-2.4-2.4c0-22.8,8.1-44.3,23-61.2c1.4-1.6,2.8-3.1,4.3-4.6c2.1-2.1,4.3-4.1,6.6-6
			c14.4-11.9,31.8-19.1,50.3-20.8c1.6-0.2,3.3-0.3,5-0.3c1.3-0.1,2.6-0.1,3.9-0.1h2.4c1.2,0,2.3,0,3.4,0.1c1.5,0.1,3,0.1,4.5,0.3
			c16.3,1.4,31.6,6.9,44.9,16.1c4.1,2.9,8.1,6.1,11.8,9.7c0.4,0.4,0.8,0.7,1.1,1.1c16.1,16.1,25.5,37,27,59.5
			c2.6,0.9,4.5,3.4,4.5,6.3c0,0.9-0.2,1.8-0.6,2.7c2.2,1.4,4.7,3.6,6.9,6.4C609.2,393.4,611.3,399.6,609.1,401.4z"/>
		<path fill="#57EC00" d="M500.6,365.8c-26.3,0-47.6,21.4-47.6,47.6c0,26.3,21.4,47.6,47.6,47.6c26.3,0,47.6-21.4,47.6-47.6
			C548.3,387.2,526.9,365.8,500.6,365.8z M517.6,393.1c2.9,0,5.3,4,5.3,9c0,5-2.4,9-5.3,9c-0.3,0-0.6,0-0.8-0.1
			c1.8-0.6,3.1-3.2,3.1-6.3c0-3.6-1.7-6.4-3.8-6.4c-1.9,0-3.4,2.3-3.7,5.3c0-0.5-0.1-0.9-0.1-1.4
			C512.3,397.1,514.7,393.1,517.6,393.1z M483.1,393.1c2.9,0,5.3,4,5.3,9c0,0.5,0,0.9-0.1,1.4c-0.3-3-1.9-5.3-3.7-5.3
			c-2.1,0-3.8,2.9-3.8,6.4c0,3.1,1.3,5.8,3.1,6.3c-0.3,0.1-0.5,0.1-0.8,0.1c-2.9,0-5.3-4-5.3-9C477.8,397.1,480.2,393.1,483.1,393.1
			z M529.8,426.5c-0.3,0.4-0.7,0.7-1.1,1.2c-0.4,0.4-0.9,0.8-1.4,1.2c-0.5,0.4-1.1,0.9-1.6,1.4c-0.6,0.5-1.3,0.9-1.9,1.4
			c-0.7,0.5-1.4,1-2.1,1.5c-0.8,0.4-1.6,0.9-2.5,1.3c-1.7,1-3.6,1.6-5.5,2.4c-2,0.5-4.1,1.3-6.3,1.5c-2.2,0.4-4.4,0.5-6.7,0.6
			c-2.2-0.1-4.5-0.1-6.7-0.5c-2.2-0.2-4.3-0.9-6.3-1.4c-2-0.8-3.9-1.3-5.6-2.3c-0.8-0.4-1.7-0.9-2.5-1.3c-0.7-0.5-1.5-1-2.2-1.4
			c-0.7-0.5-1.4-0.9-1.9-1.4c-0.6-0.5-1.1-1-1.6-1.4c-0.5-0.4-1-0.8-1.4-1.2c-0.4-0.4-0.8-0.8-1.1-1.2c-1.3-1.4-2-2.2-2-2.2
			s0.9,0.6,2.4,1.7c0.4,0.3,0.8,0.6,1.3,0.9c0.5,0.3,1,0.6,1.6,0.9c1.1,0.7,2.3,1.5,3.8,2.1c0.7,0.4,1.4,0.7,2.2,1.1
			c0.8,0.3,1.6,0.6,2.5,1c0.8,0.4,1.7,0.7,2.6,0.9c0.9,0.3,1.8,0.6,2.8,0.8c1.9,0.4,3.9,0.9,5.9,1.1c2,0.3,4.1,0.3,6.2,0.4
			c2.1-0.1,4.2-0.1,6.2-0.5c2-0.2,4-0.7,5.9-1.2c0.9-0.3,1.8-0.6,2.8-0.9c0.9-0.2,1.8-0.6,2.6-1c0.8-0.3,1.7-0.7,2.4-1
			c0.8-0.4,1.5-0.8,2.2-1.1c1.4-0.7,2.7-1.5,3.7-2.2c0.6-0.3,1.1-0.7,1.6-1c0.5-0.3,0.9-0.7,1.3-0.9c1.5-1.1,2.4-1.8,2.4-1.8
			S531.1,425.1,529.8,426.5z"/>
	</g>
	<path fill="#57EC00" d="M309.9,562.6c-3.7,0-6.5,1.1-8.5,3.4c-2,2.3-3,5.4-3,9.6c0,4.2,1.1,7.4,3.3,9.6c2.2,2.3,5.1,3.4,8.8,3.4
		c2,0,3.6-0.3,5-0.8c1.4-0.5,2.7-1.1,3.9-1.8c0.8,0.7,1.5,1.5,1.9,2.4c0.5,0.9,0.7,2,0.7,3.3c0,2-1.1,3.6-3.3,5
		c-2.2,1.4-5.5,2.1-10,2.1c-3.2,0-6.2-0.5-9.1-1.4c-2.8-0.9-5.3-2.3-7.4-4.2c-2.1-1.9-3.8-4.3-5-7.2c-1.2-2.9-1.8-6.4-1.8-10.4
		c0-3.7,0.6-7,1.8-9.9c1.2-2.9,2.8-5.3,4.8-7.2c2-2,4.4-3.5,7.2-4.5c2.7-1,5.7-1.5,8.8-1.5c4.4,0,7.8,0.7,10.3,2.2
		c2.4,1.4,3.6,3.3,3.6,5.5c0,1.2-0.3,2.3-0.9,3.2c-0.6,0.9-1.3,1.6-2.2,2.2c-1.2-0.8-2.6-1.5-4-2.1
		C313.4,562.9,311.8,562.6,309.9,562.6z"/>
	<path fill="#57EC00" d="M325.9,575.6c0-3.7,0.6-7.1,1.8-9.9c1.2-2.9,2.8-5.3,4.8-7.2c2-1.9,4.4-3.4,7.2-4.4c2.8-1,5.7-1.5,9-1.5
		c3.2,0,6.2,0.5,9,1.5c2.8,1,5.2,2.5,7.2,4.4c2.1,1.9,3.7,4.4,4.9,7.2c1.2,2.9,1.8,6.2,1.8,9.9s-0.6,7.1-1.7,10
		c-1.2,2.9-2.7,5.3-4.8,7.3c-2,1.9-4.5,3.4-7.2,4.4c-2.8,1-5.8,1.5-9.1,1.5c-3.3,0-6.3-0.5-9.1-1.5c-2.8-1-5.2-2.5-7.2-4.5
		c-2-2-3.6-4.4-4.8-7.3C326.5,582.6,325.9,579.3,325.9,575.6z M338.8,575.6c0,4.4,0.9,7.6,2.7,9.8c1.8,2.2,4.2,3.2,7.1,3.2
		c3,0,5.4-1.1,7.2-3.2c1.8-2.2,2.7-5.4,2.7-9.8c0-4.3-0.9-7.6-2.6-9.7c-1.8-2.2-4.1-3.2-7.2-3.2c-3,0-5.4,1.1-7.2,3.2
		C339.7,568,338.8,571.2,338.8,575.6z"/>
	<path fill="#57EC00" d="M395.1,563.9h-17.7c-0.3-0.5-0.6-1.2-0.9-2.2c-0.3-0.9-0.4-1.9-0.4-2.9c0-1.9,0.4-3.2,1.3-4
		c0.8-0.8,1.9-1.2,3.3-1.2h26.9c2.1,1.7,3.2,4,3.2,6.9c0,1.2-0.3,2.4-0.8,3.6c-0.6,1.2-1.3,2.3-2.1,3.3l-16.3,19.7h18.4
		c0.3,0.5,0.6,1.2,0.9,2.2c0.3,0.9,0.4,1.9,0.4,2.9c0,1.9-0.4,3.2-1.3,4c-0.8,0.8-1.9,1.2-3.3,1.2h-28.4c-0.8-0.7-1.5-1.6-2-2.7
		c-0.5-1.2-0.8-2.5-0.8-4c0-1.2,0.3-2.4,0.9-3.7c0.6-1.2,1.4-2.4,2.2-3.5L395.1,563.9z"/>
	<path fill="#57EC00" d="M440.9,597.2c-0.5,0.1-1.3,0.3-2.4,0.4c-1.1,0.1-2.2,0.2-3.2,0.2c-2.2,0-3.9-0.4-5-1.1
		c-1.1-0.7-1.7-2.3-1.7-4.7v-9.7c-1.2-1.8-2.5-3.7-3.9-5.9c-1.4-2.2-2.8-4.4-4.1-6.6c-1.3-2.3-2.6-4.5-3.7-6.7
		c-1.2-2.2-2.1-4.2-2.8-6c0.6-0.9,1.5-1.7,2.6-2.4c1.1-0.7,2.4-1.1,4-1.1c1.9,0,3.4,0.4,4.6,1.2c1.2,0.8,2.3,2.2,3.3,4.3l6,12h0.4
		c0.7-1.5,1.3-2.8,1.8-4.1c0.5-1.2,1-2.4,1.5-3.7c0.5-1.2,1-2.5,1.5-3.8c0.5-1.3,1.1-2.8,1.8-4.6c0.9-0.4,1.8-0.8,2.9-1
		c1.1-0.2,2.1-0.4,3-0.4c1.7,0,3.1,0.4,4.3,1.3c1.2,0.9,1.8,2.2,1.8,4c0,0.6-0.1,1.3-0.4,2.1c-0.2,0.8-0.8,2.1-1.7,3.7
		c-0.9,1.7-2.1,3.9-3.8,6.7c-1.7,2.8-3.9,6.5-6.7,11.1V597.2z"/>
	<path fill="#555DA0" d="M495.9,562.6c-3.7,0-6.5,1.1-8.5,3.4c-2,2.3-3,5.4-3,9.6c0,4.2,1.1,7.4,3.3,9.6c2.2,2.3,5.1,3.4,8.8,3.4
		c2,0,3.6-0.3,5-0.8c1.4-0.5,2.7-1.1,3.9-1.8c0.8,0.7,1.5,1.5,1.9,2.4c0.5,0.9,0.7,2,0.7,3.3c0,2-1.1,3.6-3.3,5
		c-2.2,1.4-5.5,2.1-10,2.1c-3.2,0-6.2-0.5-9.1-1.4c-2.8-0.9-5.3-2.3-7.4-4.2c-2.1-1.9-3.8-4.3-5-7.2c-1.2-2.9-1.8-6.4-1.8-10.4
		c0-3.7,0.6-7,1.8-9.9c1.2-2.9,2.8-5.3,4.8-7.2c2-2,4.4-3.5,7.2-4.5c2.7-1,5.7-1.5,8.8-1.5c4.4,0,7.8,0.7,10.3,2.2
		c2.4,1.4,3.6,3.3,3.6,5.5c0,1.2-0.3,2.3-0.9,3.2c-0.6,0.9-1.3,1.6-2.2,2.2c-1.2-0.8-2.6-1.5-4-2.1
		C499.4,562.9,497.8,562.6,495.9,562.6z"/>
	<path fill="#555DA0" d="M527.3,583.4v13.8c-0.5,0.1-1.4,0.3-2.5,0.4c-1.1,0.1-2.2,0.2-3.3,0.2c-1.1,0-2.1-0.1-2.9-0.3
		c-0.8-0.2-1.5-0.5-2.1-0.9c-0.6-0.4-1-1-1.3-1.8c-0.3-0.8-0.4-1.8-0.4-3v-33.9c0-1,0.3-1.8,0.8-2.3c0.6-0.6,1.3-1,2.3-1.3
		c1.6-0.6,3.5-1,5.7-1.3c2.2-0.3,4.5-0.4,6.9-0.4c6.6,0,11.6,1.4,15,4.2c3.4,2.8,5,6.6,5,11.3c0,3-0.8,5.5-2.3,7.6
		c-1.5,2.1-3.4,3.7-5.5,4.9c1.7,2.4,3.4,4.6,5.1,6.6c1.7,2.1,3,3.9,4,5.6c-0.5,1.7-1.4,3-2.6,3.9c-1.3,0.9-2.7,1.3-4.3,1.3
		c-1.1,0-2-0.1-2.7-0.4c-0.8-0.2-1.4-0.6-2-1c-0.6-0.4-1.1-1-1.6-1.6c-0.5-0.6-0.9-1.3-1.4-2l-6-9.7H527.3z M531.9,573.8
		c1.8,0,3.3-0.5,4.3-1.4c1.1-0.9,1.6-2.3,1.6-4.1c0-1.8-0.6-3.2-1.8-4.1c-1.2-0.9-3-1.4-5.6-1.4c-0.7,0-1.3,0-1.7,0.1
		c-0.4,0-0.9,0.1-1.4,0.2v10.8H531.9z"/>
	<path fill="#555DA0" d="M568.5,555.1c0.8-0.5,2.1-0.9,3.7-1.4c1.7-0.4,3.3-0.6,5-0.6c2.4,0,4.5,0.3,6.4,1c1.8,0.7,3,1.8,3.6,3.3
		c0.9,2.5,1.8,5.4,2.8,8.7c1,3.3,2,6.7,3,10.3c1,3.5,2,7,3,10.4c1,3.4,1.8,6.5,2.5,9.1c-0.6,0.7-1.4,1.2-2.6,1.6
		c-1.2,0.4-2.5,0.6-4.1,0.6c-1.2,0-2.1-0.1-2.9-0.3c-0.8-0.2-1.4-0.5-1.9-0.9c-0.5-0.4-0.9-0.9-1.2-1.5c-0.3-0.6-0.6-1.3-0.8-2.2
		l-1.3-5h-13c-0.4,1.4-0.8,2.9-1.2,4.5c-0.4,1.5-0.8,3-1.2,4.5c-0.7,0.2-1.4,0.4-2.1,0.6c-0.7,0.2-1.6,0.3-2.7,0.3
		c-2.4,0-4.3-0.4-5.4-1.3c-1.2-0.8-1.8-2-1.8-3.5c0-0.7,0.1-1.3,0.3-2c0.2-0.7,0.4-1.5,0.6-2.4c0.3-1.3,0.8-2.9,1.4-4.8
		c0.6-1.9,1.3-4,2-6.2c0.7-2.2,1.5-4.5,2.3-6.9c0.8-2.4,1.6-4.6,2.3-6.7c0.7-2.1,1.4-3.9,2-5.6C567.7,557.2,568.2,556,568.5,555.1z
		 M577.1,564.4c-0.7,2-1.4,4.3-2.3,6.7c-0.8,2.5-1.6,5-2.3,7.5h8.9c-0.7-2.6-1.4-5.1-2.1-7.6c-0.7-2.5-1.3-4.7-1.9-6.7H577.1z"/>
	<path fill="#555DA0" d="M599.8,563.9c-0.3-0.5-0.6-1.2-0.9-2.2c-0.3-0.9-0.4-1.9-0.4-2.9c0-1.9,0.4-3.2,1.3-4
		c0.8-0.8,1.9-1.2,3.3-1.2h31.4c0.3,0.5,0.6,1.2,0.9,2.2c0.3,0.9,0.4,1.9,0.4,2.9c0,1.9-0.4,3.2-1.3,4c-0.8,0.8-1.9,1.2-3.3,1.2h-8
		v33.3c-0.5,0.1-1.4,0.3-2.5,0.4c-1.1,0.1-2.2,0.2-3.3,0.2c-1.1,0-2.1-0.1-2.9-0.3c-0.8-0.2-1.5-0.5-2.1-0.9c-0.6-0.4-1-1-1.3-1.8
		c-0.3-0.8-0.4-1.8-0.4-3v-27.9H599.8z"/>
	<path fill="#555DA0" d="M641.9,560.5c0-2.1,0.6-3.7,1.8-4.9c1.2-1.2,2.8-1.8,4.9-1.8h23.8c0.3,0.5,0.6,1.2,0.9,2.1
		c0.3,0.9,0.4,1.8,0.4,2.7c0,1.8-0.4,3.1-1.2,3.9c-0.8,0.8-1.8,1.2-3.1,1.2h-15.2v6.7h16.2c0.3,0.5,0.6,1.2,0.9,2.1
		c0.3,0.8,0.4,1.7,0.4,2.7c0,1.8-0.4,3.1-1.2,3.9c-0.8,0.8-1.8,1.2-3.1,1.2h-13.2v7.6h18.5c0.3,0.5,0.6,1.2,0.9,2.1s0.4,1.8,0.4,2.7
		c0,1.8-0.4,3.1-1.2,3.9c-0.8,0.8-1.8,1.2-3.1,1.2h-21c-2.1,0-3.7-0.6-4.9-1.8c-1.2-1.2-1.8-2.8-1.8-4.9V560.5z"/>
	<path fill="#555DA0" d="M694.1,580.1c-2.1-0.7-4-1.5-5.8-2.2c-1.7-0.7-3.2-1.6-4.5-2.7c-1.2-1.1-2.2-2.3-2.9-3.8
		c-0.7-1.5-1-3.3-1-5.4c0-4.1,1.6-7.3,4.7-9.8c3.1-2.4,7.5-3.7,13.2-3.7c2.1,0,4,0.1,5.8,0.4c1.8,0.3,3.3,0.7,4.6,1.3
		c1.3,0.6,2.3,1.4,3,2.3c0.7,0.9,1.1,2,1.1,3.3c0,1.2-0.3,2.3-0.9,3.2c-0.6,0.9-1.3,1.6-2.1,2.3c-1.1-0.7-2.5-1.3-4.2-1.8
		c-1.8-0.5-3.7-0.8-5.8-0.8c-2.2,0-3.7,0.3-4.8,0.9c-1,0.6-1.5,1.4-1.5,2.3c0,0.7,0.3,1.3,0.9,1.8c0.6,0.5,1.6,0.9,2.8,1.3l3.8,1.2
		c4.5,1.4,8,3.3,10.4,5.5c2.4,2.2,3.6,5.3,3.6,9.1c0,4.1-1.6,7.4-4.8,9.9c-3.2,2.5-7.9,3.8-14.2,3.8c-2.2,0-4.3-0.2-6.2-0.5
		c-1.9-0.4-3.6-0.9-5-1.6c-1.4-0.7-2.5-1.6-3.3-2.6c-0.8-1-1.2-2.2-1.2-3.6c0-1.4,0.4-2.6,1.2-3.6c0.8-1,1.7-1.7,2.7-2.3
		c1.3,1.1,3,2,4.9,2.7c1.9,0.8,4.1,1.2,6.4,1.2c2.4,0,4-0.4,5-1.1c1-0.7,1.4-1.6,1.4-2.5c0-1-0.4-1.7-1.2-2.2
		c-0.8-0.5-1.8-1-3.2-1.5L694.1,580.1z"/>
</g>
</svg>
